PathFileType	4	(X/Y/Z)	
DataRate	CameraRate	NumFrames	NumMarkers	Units	OrigDataRate	OrigDataStartFrame	OrigNumFrames
60	60	12	25	m	100	71	188
Frame#	Time	Nose				Neck				RShoulder				RElbow				RWrist				LShoulder				LElbow				LWrist				CHip				RHip				RKnee				RAnkle				LHip				LKnee				LAnkle				REye				LEye				REar				LEar				LBigToe				LSmallToe				LHeel				RBigToe				RSmallToe				RHeel			
X1	Y1	Z1	X2	Y2	Z2	X3	Y3	Z3	X4	Y4	Z4	X5	Y5	Z5	X6	Y6	Z6	X7	Y7	Z7	X8	Y8	Z8	X9	Y9	Z9	X10	Y10	Z10	X11	Y11	Z11	X12	Y12	Z12	X13	Y13	Z13	X14	Y14	Z14	X15	Y15	Z15	X16	Y16	Z16	X17	Y17	Z17	X18	Y18	Z18	X19	Y19	Z19	X20	Y20	Z20	X21	Y21	Z21	X22	Y22	Z22	X23	Y23	Z23	X24	Y24	Z24	X25	Y25	Z25
71	1.1666666666666667	0.3195539	1.5427586	-0.5627716	0.3578961	1.3943087	-0.7433882	0.2691336	1.37665	-0.6484761	0.4490362	1.3678496	-0.3922472	0.5766026	1.5923259	-0.4560495	0.4957591	1.4463625	-0.794903	0.7462384	1.4982657	-0.698859	0.6218811	1.6366568	-0.5146488	0.3784694	0.888205	-0.7536752	0.2796322	0.8991145	-0.7080673	0.2081019	0.5366901	-0.4732493	0.0083823	0.2189736	-0.6733204	0.4801989	0.8891438	-0.7985261	0.568757	0.4835745	-0.6451857	0.5407969	0.0870034	-0.7925996	0.2885453	1.5604744	-0.5878778	0.3385662	1.5821991	-0.570982	0.2762055	1.5407121	-0.6893492	0.4131943	1.5980871	-0.6500546	0.5918341	0.0159447	-0.6298326	0.6125226	0.0177642	-0.6702274	0.5279691	0.0610527	-0.8274465	0.0016997	0.066205	-0.570856	-0.0304432	0.0907177	-0.5894312	0.012331	0.2138456	-0.7166945
72	1.1833333333333333	0.3190434	1.5436507	-0.5628236	0.3568773	1.3939929	-0.742739	0.268585	1.3764039	-0.6472823	0.449094	1.3679503	-0.3913864	0.5768563	1.5926939	-0.4539799	0.4946787	1.4459779	-0.7947396	0.7453769	1.4971079	-0.6985093	0.6221826	1.635947	-0.5138189	0.377699	0.8877996	-0.7523022	0.2791078	0.8987567	-0.7061598	0.2086273	0.536619	-0.4706755	0.0078068	0.2201515	-0.6715502	0.4791747	0.8887403	-0.7977487	0.5694641	0.4834591	-0.6449074	0.5405146	0.0870506	-0.7925802	0.2879264	1.5610839	-0.5879903	0.3379866	1.5830317	-0.5714836	0.2752524	1.5403172	-0.6891806	0.4123292	1.5982604	-0.6509513	0.5927725	0.0158179	-0.6302916	0.6131771	0.0176439	-0.6708463	0.5273879	0.0611542	-0.8273649	0.0011177	0.0675193	-0.5688522	-0.0310741	0.0920998	-0.5873163	0.0115342	0.2149798	-0.7149502
73	1.2	0.3196333	1.5432767	-0.560589	0.3559698	1.3907499	-0.7385391	0.268649	1.3736131	-0.6418861	0.4500853	1.3667338	-0.3864505	0.5776802	1.5918531	-0.4480437	0.4932832	1.4422745	-0.7925963	0.7460217	1.4923396	-0.7006691	0.6276919	1.6333075	-0.514454	0.3781177	0.8842089	-0.7450519	0.2800219	0.895051	-0.6978058	0.2123983	0.5329903	-0.4614187	0.0107502	0.2191562	-0.6654499	0.4790651	0.8853461	-0.7916983	0.5730569	0.480496	-0.6402761	0.5422078	0.0852772	-0.7907531	0.2882185	1.5601159	-0.5857831	0.3383985	1.5825123	-0.5702491	0.2745557	1.537226	-0.6863117	0.4119169	1.5963007	-0.6507282	0.5966513	0.0124711	-0.6299276	0.6165271	0.0145985	-0.6707696	0.5285408	0.0597544	-0.8255886	0.004304	0.065816	-0.5638374	-0.0279817	0.0905842	-0.5819638	0.0142315	0.2143149	-0.7089241
74	1.2166666666666666	0.3200285	1.5443354	-0.5610155	0.3535233	1.3908225	-0.7391149	0.2674603	1.3735389	-0.6412651	0.4523801	1.3663709	-0.3883997	0.5795333	1.5915768	-0.45076	0.4904885	1.4421924	-0.7946249	0.7446339	1.4904232	-0.7051557	0.6300009	1.6311029	-0.5163942	0.3749999	0.884288	-0.7474895	0.2774199	0.895129	-0.699167	0.2121781	0.5336696	-0.4613921	0.0086044	0.2207994	-0.6649312	0.4754389	0.8854728	-0.7952845	0.5720748	0.4811924	-0.6441426	0.5396618	0.0862998	-0.7952505	0.2882938	1.5610254	-0.5858988	0.3387575	1.5834354	-0.5712978	0.2730979	1.5372608	-0.685987	0.4111442	1.59635	-0.652909	0.5958911	0.0127162	-0.6354436	0.6153125	0.0149648	-0.6765181	0.5255234	0.0609543	-0.8300487	0.0025591	0.0678155	-0.5627338	-0.0298371	0.0926187	-0.5806611	0.0116814	0.2158333	-0.7084743
75	1.2333333333333334	0.3190407	1.5429446	-0.5568686	0.3514251	1.3898803	-0.73599	0.2660131	1.3713077	-0.6376419	0.4521254	1.3621831	-0.3857294	0.5784976	1.5887191	-0.4450233	0.4881386	1.442014	-0.7917812	0.7429686	1.4892962	-0.7033821	0.6302841	1.6282057	-0.5121185	0.3734861	0.8837119	-0.7487838	0.2760115	0.8941646	-0.7000586	0.2143501	0.533661	-0.4599732	0.0112207	0.2187454	-0.6607401	0.4738007	0.8852634	-0.7969682	0.5724856	0.4818406	-0.6445935	0.5411553	0.0866718	-0.7954558	0.2870382	1.559458	-0.5815144	0.3375693	1.5820765	-0.5674237	0.2710161	1.5353668	-0.6813577	0.4092107	1.5950317	-0.6496664	0.597275	0.0129478	-0.6356756	0.6166787	0.0152313	-0.6767773	0.5270659	0.0613441	-0.8303006	0.0064445	0.0671384	-0.5563154	-0.0261365	0.0915928	-0.57432	0.0139387	0.2132242	-0.7043439
76	1.25	0.3199211	1.5428444	-0.5548979	0.3476943	1.3888571	-0.7345685	0.2642125	1.3704059	-0.6345224	0.4563837	1.3620812	-0.3873666	0.5816872	1.5880963	-0.4510019	0.4837094	1.4408585	-0.7926132	0.7399923	1.4875778	-0.7079071	0.6311218	1.626014	-0.5140545	0.3683928	0.8828214	-0.7495382	0.2715908	0.8932856	-0.6994526	0.2136565	0.5332585	-0.4577947	0.0071526	0.2189483	-0.6560171	0.4680618	0.8844544	-0.7990727	0.5702767	0.481774	-0.6474096	0.5402042	0.0867116	-0.7990667	0.2873335	1.5592086	-0.5788642	0.3382515	1.581852	-0.5662425	0.2687401	1.534317	-0.6781053	0.4078241	1.594013	-0.6503356	0.5971905	0.0126235	-0.6397405	0.6164148	0.0150806	-0.6809796	0.5259966	0.0614529	-0.8339241	0.0035869	0.0682539	-0.5501363	-0.0292382	0.0926561	-0.56782	0.0091751	0.2130997	-0.699696
77	1.2666666666666666	0.3175996	1.5419812	-0.5524745	0.3427914	1.3874083	-0.7324184	0.2605011	1.3688267	-0.6313916	0.4563291	1.3613609	-0.3871642	0.5809933	1.5870481	-0.4533184	0.4783109	1.4396724	-0.7917539	0.7355661	1.4863979	-0.7095546	0.6292217	1.6236919	-0.51349	0.3643365	0.8814427	-0.7484486	0.2678298	0.8915293	-0.6976269	0.2132918	0.5307028	-0.4561912	0.0067758	0.2176138	-0.6562485	0.4636804	0.8834841	-0.7986848	0.5694187	0.4817838	-0.6469911	0.5423419	0.0864918	-0.7987541	0.2845321	1.5580862	-0.5759531	0.3356076	1.5809669	-0.5644032	0.2642289	1.5324874	-0.6747203	0.4036346	1.5927964	-0.6497848	0.5992305	0.0125469	-0.639303	0.6185424	0.0151519	-0.6805018	0.5283314	0.0611895	-0.8337041	0.0041639	0.0669781	-0.550182	-0.028839	0.0912948	-0.5677122	0.0085243	0.2117792	-0.699973
78	1.2833333333333334	0.3187431	1.5400941	-0.5472496	0.3404208	1.3861667	-0.7284465	0.2601603	1.3667573	-0.6259429	0.4610761	1.3590314	-0.3858912	0.5840953	1.5850044	-0.4541451	0.4747279	1.4393378	-0.7899861	0.7335929	1.4864558	-0.7127805	0.6312882	1.6206958	-0.5125283	0.362956	0.8804179	-0.7465022	0.267101	0.8902932	-0.6943709	0.2151792	0.5279283	-0.4544735	0.0061619	0.2191688	-0.6585549	0.4616933	0.8826615	-0.7980186	0.5698311	0.4813361	-0.6466488	0.5427666	0.0858963	-0.797995	0.2849104	1.5559125	-0.5698193	0.336099	1.579224	-0.5596737	0.2621424	1.5301239	-0.668039	0.4016986	1.5915952	-0.6468538	0.5995849	0.0120133	-0.6384665	0.6188761	0.0146319	-0.6796442	0.5287215	0.0605967	-0.8330173	0.0039822	0.0677801	-0.5535331	-0.029121	0.0922998	-0.5706779	0.007505	0.2137109	-0.7023497
79	1.3	0.3193249	1.5375917	-0.546088	0.3382954	1.3842293	-0.7282972	0.2590253	1.3642855	-0.6250429	0.4618583	1.3569486	-0.3865128	0.5831352	1.5835034	-0.4558918	0.4717701	1.4379585	-0.7913448	0.7321922	1.4857683	-0.7194887	0.6344833	1.6179878	-0.5156911	0.3612515	0.8787435	-0.7457612	0.2656076	0.8889221	-0.6932915	0.2140471	0.5280555	-0.4510744	0.004072	0.219838	-0.6549293	0.4598306	0.8806942	-0.7977093	0.568797	0.4810511	-0.6420753	0.5435597	0.0837262	-0.7888047	0.2849233	1.5532355	-0.5679101	0.3362019	1.5768239	-0.5588659	0.2601451	1.527379	-0.665697	0.3998567	1.5895979	-0.6474245	0.5987771	0.0118972	-0.6277412	0.6184528	0.0140414	-0.66878	0.5298649	0.0579972	-0.8237103	0.0017853	0.0697849	-0.5479178	-0.0313283	0.0941584	-0.5653206	0.0052813	0.2138893	-0.6987565
80	1.3166666666666667	0.3165464	1.536691	-0.5472464	0.3351179	1.3830453	-0.7297407	0.2552951	1.3625115	-0.6267412	0.4562339	1.3560998	-0.3865384	0.5758889	1.5836612	-0.4553508	0.468571	1.4374392	-0.7923763	0.7291315	1.4864506	-0.7210733	0.6323558	1.6163179	-0.5153744	0.3600765	0.8777975	-0.746809	0.264163	0.887835	-0.6947936	0.2124193	0.5280697	-0.4511065	0.0038442	0.2188364	-0.6547862	0.4589198	0.8799155	-0.7983352	0.5679582	0.4807399	-0.6412168	0.5450119	0.0833657	-0.7884454	0.28192	1.5521588	-0.5688431	0.333232	1.5759121	-0.56033	0.256325	1.525803	-0.6663527	0.3961092	1.5884603	-0.6494288	0.5980088	0.0116289	-0.6265451	0.6181972	0.0137317	-0.6674154	0.5318149	0.0576315	-0.8234954	0.0014758	0.0704942	-0.5452331	-0.0316204	0.094575	-0.5630589	0.0051201	0.2122476	-0.6986721
81	1.3333333333333333	0.3207712	1.5367239	-0.5468215	0.3360626	1.3828621	-0.7300513	0.2561875	1.3622882	-0.6267822	0.4570209	1.3543496	-0.3863818	0.5775095	1.581465	-0.4551798	0.4695253	1.4369316	-0.7929984	0.7307765	1.4852827	-0.7228662	0.6367538	1.6131071	-0.5146478	0.35968	0.8776374	-0.7467068	0.2639129	0.8881727	-0.6945438	0.2117141	0.5312048	-0.4472336	0.0008831	0.2201414	-0.6456836	0.4584259	0.8792994	-0.7985049	0.5667612	0.4802877	-0.6402857	0.5431585	0.0828317	-0.7875322	0.2859235	1.5524514	-0.5678836	0.3375956	1.5757705	-0.5602604	0.2584287	1.5260781	-0.6649595	0.3990901	1.5875676	-0.6503605	0.5953343	0.011291	-0.6252425	0.6156504	0.0131729	-0.6661867	0.5299797	0.0570661	-0.8225203	-0.0014763	0.074795	-0.5319936	-0.0345936	0.0985857	-0.5501493	0.0017941	0.2124331	-0.6896072
82	1.35	0.3150615	1.5345123	-0.5424545	0.3327867	1.3817942	-0.7265138	0.2526075	1.3597536	-0.6239251	0.4528083	1.3511409	-0.3829635	0.5736338	1.5783713	-0.4508386	0.4662935	1.4374933	-0.7879736	0.7270072	1.4873657	-0.7166064	0.6325413	1.6109548	-0.506048	0.3592179	0.8770738	-0.7459638	0.262971	0.8872243	-0.6946648	0.2089206	0.5304799	-0.4477485	-0.0009277	0.2184223	-0.6456893	0.4584411	0.8791598	-0.7968951	0.5661696	0.4798768	-0.6385548	0.5450565	0.0830706	-0.7880781	0.2801809	1.5499481	-0.56367	0.3315712	1.5737644	-0.5556938	0.2535174	1.5235825	-0.6609576	0.393461	1.5864446	-0.6453669	0.5951383	0.011271	-0.6252414	0.6159971	0.0132269	-0.6659935	0.5323489	0.0573648	-0.8232784	-0.003641	0.0748591	-0.5296243	-0.0367411	0.0983696	-0.5481914	0.0001226	0.2101009	-0.6896489
